<svg width="100" height="140" class="spr card prev " viewBox="0 0 100 140" xmlns="http://www.w3.org/2000/svg" role="img" ><title>Previsione IRRUZIONE FREDDA DA NORD</title><rect x="1.5" y="1.5" width="97" height="137" rx="7" fill="#eef3f8" stroke="#2c3e55" stroke-width="2"/>
      <rect x="4" y="4" width="92" height="14" rx="4" fill="#4f8a52"/><text x="50" y="13.6" text-anchor="middle" font-size="6.6" letter-spacing=".8" font-weight="700" fill="#fff" font-family="system-ui, -apple-system, 'Segoe UI', Roboto, sans-serif">PREVISIONE · CENTRO</text>
      <text x="50" y="29" text-anchor="middle" font-size="8.2" font-weight="700" fill="#1d2a3a" font-family="Georgia, 'Times New Roman', serif">Irruzione Fredda da</text><text x="50" y="38.2" text-anchor="middle" font-size="8.2" font-weight="700" fill="#1d2a3a" font-family="Georgia, 'Times New Roman', serif">Nord</text>
      <text x="50" y="50.4" text-anchor="middle" font-size="5.8" fill="#5b6b80" font-family="system-ui, -apple-system, 'Segoe UI', Roboto, sans-serif">Maltempo pieno</text>
      <line x1="6" y1="54.4" x2="94" y2="54.4" stroke="#a9b6c6" stroke-width=".8"/><g transform="translate(6 60.4) scale(0.6)"><g stroke="#4b97d6" stroke-width="2.6" stroke-linecap="round"><line x1="20" y1="6" x2="20" y2="34" transform="rotate(0 20 20)"/><line x1="20" y1="6" x2="20" y2="34" transform="rotate(60 20 20)"/><line x1="20" y1="6" x2="20" y2="34" transform="rotate(120 20 20)"/></g><g stroke="#4b97d6" stroke-width="1.8" stroke-linecap="round"><polyline points="16.5,9 20,12.5 23.5,9" fill="none" transform="rotate(0 20 20)"/><polyline points="16.5,9 20,12.5 23.5,9" fill="none" transform="rotate(60 20 20)"/><polyline points="16.5,9 20,12.5 23.5,9" fill="none" transform="rotate(120 20 20)"/><polyline points="16.5,9 20,12.5 23.5,9" fill="none" transform="rotate(180 20 20)"/><polyline points="16.5,9 20,12.5 23.5,9" fill="none" transform="rotate(240 20 20)"/><polyline points="16.5,9 20,12.5 23.5,9" fill="none" transform="rotate(300 20 20)"/></g></g>
        <text x="33.0" y="71.4" font-size="8" fill="#2b2216" font-weight="700" font-family="system-ui, -apple-system, 'Segoe UI', Roboto, sans-serif">Toscana</text>
        <text x="33.0" y="80.4" font-size="6" fill="#5b6b80" font-family="system-ui, -apple-system, 'Segoe UI', Roboto, sans-serif">Core · Neve</text>
        <text x="94" y="75.9" text-anchor="end" font-size="11" font-weight="800" fill="#b4261a" font-family="system-ui, -apple-system, 'Segoe UI', Roboto, sans-serif">★3</text><g transform="translate(6 86.4) scale(0.6)"><path d="M10 22a5.5 5.5 0 0 1 1-10.9A7.5 7.5 0 0 1 25 9a6.5 6.5 0 0 1 4 12z" fill="#e7edf3" stroke="#6c7f93" stroke-width="1.6" stroke-linejoin="round"/><g stroke="#2d7fc4" stroke-width="2.6" stroke-linecap="round"><line x1="13" y1="26" x2="11" y2="32"/><line x1="20" y1="26" x2="18" y2="33"/><line x1="27" y1="26" x2="25" y2="32"/></g></g>
        <text x="33.0" y="97.4" font-size="8" fill="#2b2216" font-weight="400" font-family="system-ui, -apple-system, 'Segoe UI', Roboto, sans-serif">Marche</text>
        <text x="33.0" y="106.4" font-size="6" fill="#5b6b80" font-family="system-ui, -apple-system, 'Segoe UI', Roboto, sans-serif">Secondaria · Pioggia</text>
        <text x="94" y="101.9" text-anchor="end" font-size="11" font-weight="800" fill="#47546b" font-family="system-ui, -apple-system, 'Segoe UI', Roboto, sans-serif">2</text>
      <text x="50" y="134" text-anchor="middle" font-size="6.2" fill="#3b4a5e" font-family="system-ui, -apple-system, 'Segoe UI', Roboto, sans-serif">max 5 punti</text></svg>